<?xml version="1.0" encoding="UTF-8"?>
<svg id="Layer_1" data-name="Layer 1" xmlns="http://www.w3.org/2000/svg" viewBox="0 0 518.48 100.98">
  <defs>
    <style>
      .cls-1 {
        fill: #bd9855;
      }
    </style>
  </defs>
  <path class="cls-1" d="m0,26.19c0-1.96,1.5-3.46,3.46-3.46h10.53V6.92c0-2.26,1.66-3.76,3.76-3.76s3.76,1.5,3.76,3.76v15.8h21.97c1.81,0,3.46,1.5,3.46,3.46,0,1.81-1.66,3.46-3.46,3.46h-21.97v40.79c0,14.6,8.43,23.03,21.97,23.03,1.81,0,3.46,1.5,3.46,3.46s-1.66,3.61-3.46,3.61c-17.76,0-29.5-11.59-29.5-30.1V29.65H3.46c-1.96,0-3.46-1.66-3.46-3.46Z"/>
  <path class="cls-1" d="m62.16,78.56c1.35,0,2.86.9,3.31,2.56.75,6.32,6.02,13.09,15.95,13.09,9.33,0,15.2-6.77,15.2-13.85,0-9.03-6.47-13.39-15.35-16.4-11.14-3.61-21.67-7.67-21.67-21.97,0-11.89,9.03-20.77,21.97-20.77s22.12,7.98,22.12,18.81c0,1.96-1.5,3.46-3.46,3.46-1.2,0-2.86-.75-3.31-2.86-.6-6.47-5.87-12.79-15.35-12.79s-14.75,6.62-14.75,14.15c0,9.78,8.13,13.24,18.36,16.4,9.63,2.86,18.96,8.58,18.96,21.82,0,10.99-9.63,20.77-22.73,20.77s-22.73-9.03-22.73-18.96c0-1.96,1.51-3.46,3.46-3.46Z"/>
  <path class="cls-1" d="m122.06,25.43c0-2.11,1.5-3.76,3.76-3.76,2.11,0,3.76,1.66,3.76,3.76v41.09c0,18.21,10.99,27.54,24.68,27.54s24.68-9.33,24.68-27.54V25.43c0-2.11,1.66-3.76,3.76-3.76s3.76,1.66,3.76,3.76v40.94c0,22.12-14.15,34.61-32.21,34.61s-32.21-12.49-32.21-34.61V25.43Z"/>
  <path class="cls-1" d="m207.99,55.68c0-22.12,14.3-34.46,32.21-34.46s32.21,12.34,32.21,34.46v40.94c0,2.11-1.66,3.91-3.76,3.91s-3.76-1.81-3.76-3.91v-41.09c0-18.06-10.84-27.39-24.68-27.39s-24.68,9.33-24.68,27.39v41.09c0,2.11-1.66,3.91-3.76,3.91-2.26,0-3.76-1.81-3.76-3.91v-40.94Z"/>
  <path class="cls-1" d="m361.5,83.83c-6.92,10.38-18.66,17.16-32.21,17.16-21.82,0-38.98-17.61-38.98-39.88s17.16-39.88,38.98-39.88c13.54,0,25.28,6.77,32.21,17.16v-12.94c0-2.11,1.66-3.76,3.76-3.76s3.76,1.66,3.76,3.76v71.19c0,2.11-1.66,3.91-3.76,3.91s-3.76-1.81-3.76-3.91v-12.79Zm0-21.37v-2.71c-.75-17.76-14.45-31.6-31.75-31.6s-31.91,14.45-31.91,32.96,14.15,32.96,31.91,32.96,31-13.7,31.75-31.6Z"/>
  <path class="cls-1" d="m390.55,49.21c0-18.21,11.59-27.99,26.19-27.99,10.23,0,18.66,4.67,22.42,13.85,3.76-9.18,12.49-13.85,22.42-13.85,14.75,0,26.34,9.78,26.34,27.99v47.41c0,2.11-1.66,3.91-3.76,3.91-2.26,0-3.76-1.81-3.76-3.91v-47.41c0-13.85-8.28-21.07-18.81-21.07s-18.66,7.22-18.66,21.07v47.41c0,2.11-1.66,3.91-3.76,3.91s-3.76-1.81-3.76-3.91v-47.41c0-13.85-8.13-21.07-18.66-21.07s-18.66,7.22-18.66,21.07v47.41c0,2.11-1.66,3.91-3.76,3.91-2.26,0-3.76-1.81-3.76-3.91v-47.41Z"/>
  <path class="cls-1" d="m507.95,5.27c0-3.01,2.26-5.27,5.27-5.27s5.27,2.26,5.27,5.27-2.41,5.27-5.27,5.27c-3.01,0-5.27-2.41-5.27-5.27Zm1.5,20.17c0-2.11,1.5-3.76,3.76-3.76,2.11,0,3.76,1.66,3.76,3.76v71.19c0,2.11-1.66,3.91-3.76,3.91-2.26,0-3.76-1.81-3.76-3.91V25.43Z"/>
</svg>