<?xml version="1.0" encoding="UTF-8"?>
<svg id="Layer_1" data-name="Layer 1" xmlns="http://www.w3.org/2000/svg" viewBox="0 0 46.96 97.37">
  <defs>
    <style>
      .cls-1 {
        fill: #bd9855;
      }
    </style>
  </defs>
  <path class="cls-1" d="m0,23.03c0-1.96,1.5-3.46,3.46-3.46h10.53V3.76c0-2.26,1.66-3.76,3.76-3.76s3.76,1.5,3.76,3.76v15.8h21.97c1.81,0,3.46,1.5,3.46,3.46,0,1.81-1.66,3.46-3.46,3.46h-21.97v40.79c0,14.6,8.43,23.03,21.97,23.03,1.81,0,3.46,1.5,3.46,3.46s-1.66,3.61-3.46,3.61c-17.76,0-29.5-11.59-29.5-30.1V26.49H3.46c-1.96,0-3.46-1.66-3.46-3.46Z"/>
</svg>